<?xml version="1.0" standalone="no"?>
<!DOCTYPE svg PUBLIC "-//W3C//DTD SVG 20010904//EN"
 "http://www.w3.org/TR/2001/REC-SVG-20010904/DTD/svg10.dtd">
<svg version="1.0" xmlns="http://www.w3.org/2000/svg"
 width="3503.000000pt" height="627.000000pt" viewBox="0 0 3503.000000 627.000000"
 preserveAspectRatio="xMidYMid meet">

<g transform="translate(0.000000,627.000000) scale(0.100000,-0.100000)"
fill="#000000" stroke="none">
<path d="M5358 6260 c-146 -3 -269 -7 -272 -10 -3 -3 47 -23 112 -44 305 -100
552 -217 719 -342 l32 -24 -41 -92 c-105 -241 -212 -555 -319 -939 -38 -140
-78 -262 -87 -273 -63 -70 -260 -74 -340 -6 l-23 19 11 134 c33 391 -72 729
-295 952 -246 247 -661 336 -1068 230 -359 -93 -620 -325 -759 -675 l-42 -105
-4 -191 c-4 -186 -3 -192 23 -270 64 -186 170 -345 347 -522 135 -134 241
-217 548 -429 404 -280 520 -372 713 -573 302 -312 476 -648 548 -1060 18
-102 19 -529 1 -630 -53 -295 -149 -544 -296 -765 -141 -210 -367 -427 -591
-565 -38 -24 -77 -49 -85 -57 -12 -11 156 -13 1028 -13 l1042 0 0 3125 0 3124
-317 3 c-175 2 -438 1 -585 -2z"/>
<path d="M0 3135 l0 -3125 606 0 606 0 -88 58 c-168 110 -312 241 -409 373
l-48 64 7 205 c10 324 46 622 112 925 45 210 62 266 86 292 64 68 328 46 357
-31 6 -13 19 -92 30 -174 11 -82 30 -196 42 -253 61 -297 206 -609 388 -834
195 -241 464 -408 776 -481 65 -16 120 -19 300 -19 210 0 225 1 320 28 136 37
320 130 420 210 193 155 321 373 374 634 70 343 11 668 -174 955 -153 236
-308 383 -741 703 -281 208 -423 324 -561 463 -318 319 -500 628 -569 964 -23
111 -27 397 -8 537 40 296 149 579 314 820 70 102 225 269 342 368 171 146
418 287 643 368 55 20 123 45 150 55 49 18 24 19 -1612 19 l-1663 1 0 -3125z"/>
<path d="M24902 5423 c-16 -14 -24 -48 -42 -163 -12 -80 -35 -210 -51 -290
-56 -271 -54 -259 -38 -275 17 -17 89 -29 105 -18 6 4 42 69 79 143 83 164
159 251 258 296 61 28 65 28 293 32 208 4 232 3 248 -13 16 -16 17 -89 14
-1139 -3 -1108 -3 -1121 -24 -1161 -30 -60 -85 -83 -244 -103 l-131 -16 -10
-36 c-7 -24 -7 -43 0 -62 l11 -28 122 -1 c440 -2 1252 3 1259 7 11 6 12 95 1
110 -4 5 -47 16 -97 22 -206 27 -253 57 -274 174 -8 45 -11 386 -11 1141 l0
1077 25 16 c22 14 53 16 248 12 203 -4 226 -6 273 -27 103 -45 174 -146 235
-336 20 -64 37 -99 51 -106 22 -12 94 -3 104 13 3 5 10 82 15 171 11 206 25
349 45 460 16 84 16 89 -2 102 -31 23 -58 17 -94 -20 -18 -19 -50 -40 -69 -47
-28 -10 -264 -13 -1088 -13 l-1052 0 -48 48 c-52 50 -79 58 -111 30z"/>
<path d="M29916 5427 c-13 -9 -27 -67 -56 -239 -22 -124 -53 -281 -69 -349
-33 -142 -30 -153 46 -165 50 -8 60 2 106 102 61 132 101 196 156 250 66 67
127 99 212 114 72 13 443 10 456 -3 4 -5 8 -516 8 -1135 0 -1117 0 -1127 -21
-1167 -30 -60 -85 -83 -243 -103 l-131 -16 -9 -32 c-9 -34 -4 -81 10 -90 12
-7 1368 -6 1380 2 11 6 12 94 1 110 -4 5 -47 16 -97 22 -178 23 -229 47 -264
122 -14 31 -16 147 -19 1152 l-2 1117 25 17 c22 14 52 16 248 12 203 -4 226
-6 273 -27 103 -45 172 -143 234 -334 35 -108 50 -123 109 -112 57 11 61 18
61 119 0 116 25 403 46 524 15 89 15 94 -3 107 -30 24 -56 17 -112 -30 -43
-35 -65 -45 -105 -50 -79 -10 -1910 -11 -2010 -1 -88 8 -89 9 -131 52 -45 46
-69 53 -99 31z"/>
<path d="M8762 5389 c-338 -39 -588 -196 -707 -443 -55 -115 -65 -166 -65
-329 0 -155 12 -212 70 -326 96 -192 227 -307 560 -496 213 -120 273 -162 358
-247 140 -141 192 -251 192 -403 0 -220 -121 -375 -329 -421 -83 -19 -193 -15
-272 10 -206 63 -396 253 -526 524 -59 123 -76 139 -136 128 -60 -11 -62 -19
-49 -189 17 -216 61 -414 108 -485 23 -35 163 -97 299 -132 310 -80 695 -59
961 51 333 139 526 445 499 794 -12 163 -46 266 -130 396 -99 154 -244 267
-560 440 -291 159 -373 218 -454 328 -62 85 -84 145 -83 230 0 132 33 212 115
288 86 79 206 119 333 109 205 -15 364 -151 487 -415 22 -48 46 -94 55 -103
18 -21 78 -24 117 -6 l27 12 -6 115 c-8 145 -31 315 -53 406 l-18 70 -50 17
c-214 70 -524 102 -743 77z"/>
<path d="M28666 5387 c-11 -7 -42 -33 -70 -60 -64 -60 -168 -130 -226 -153
-25 -9 -46 -18 -48 -20 -2 -1 -11 -42 -22 -90 -21 -104 -629 -1752 -760 -2061
-84 -199 -141 -250 -309 -277 -48 -7 -87 -19 -92 -27 -14 -22 -11 -85 5 -98
11 -9 127 -12 443 -12 235 1 442 4 460 7 46 9 58 27 47 72 -10 41 -20 46 -168
77 -101 22 -127 44 -120 105 6 46 54 211 140 475 37 111 63 176 77 188 20 18
43 19 375 15 l354 -3 18 -23 c18 -22 141 -388 196 -581 40 -140 28 -158 -124
-188 -106 -21 -124 -33 -120 -85 3 -37 7 -43 33 -50 33 -9 1191 -12 1206 -2
11 6 12 94 1 110 -4 6 -29 14 -57 18 -130 19 -183 37 -229 77 -76 67 -69 49
-483 1244 -118 341 -267 774 -330 963 -64 188 -124 354 -135 367 -21 27 -33
30 -62 12z m-142 -1094 c165 -494 170 -514 120 -534 -14 -5 -137 -9 -273 -9
l-248 0 -11 26 c-15 32 -5 72 77 314 130 387 199 566 213 552 5 -5 60 -162
122 -349z"/>
<path d="M11354 5370 c-199 -43 -436 -146 -575 -250 -206 -154 -381 -380 -473
-611 -84 -210 -116 -454 -96 -731 32 -454 270 -834 662 -1061 355 -205 909
-244 1351 -97 459 154 768 504 877 996 29 130 41 446 22 579 -85 594 -451
1004 -1032 1158 -112 30 -121 31 -380 34 -233 2 -276 0 -356 -17z m499 -185
c101 -35 172 -81 257 -165 149 -146 248 -334 315 -598 40 -158 47 -262 42
-578 -4 -265 -6 -299 -30 -404 -32 -144 -63 -232 -118 -343 -86 -174 -225
-301 -389 -358 -54 -19 -87 -23 -200 -23 -158 -1 -212 10 -328 66 -258 126
-442 442 -517 888 -22 129 -30 464 -16 617 19 207 78 411 163 562 53 94 199
244 277 285 119 63 173 76 331 76 128 0 153 -3 213 -25z"/>
<path d="M23340 5375 c-424 -94 -669 -370 -672 -755 -1 -322 173 -564 564
-782 409 -228 562 -375 613 -589 71 -303 -146 -556 -461 -537 -160 10 -295 80
-440 230 -100 103 -152 179 -220 323 -29 62 -60 115 -69 119 -29 11 -70 7 -93
-10 -20 -13 -22 -24 -22 -95 0 -179 44 -425 95 -534 31 -64 55 -81 180 -125
139 -48 247 -70 408 -82 406 -30 739 63 955 266 154 145 233 334 234 556 0
191 -38 317 -144 475 -106 158 -231 253 -583 445 -212 116 -299 175 -374 256
-83 88 -123 174 -129 273 -13 230 148 396 396 407 225 10 399 -126 547 -426
25 -52 51 -98 58 -102 17 -11 89 -10 107 2 42 26 -9 555 -58 601 -9 9 -87 34
-172 55 l-155 38 -250 3 c-188 2 -266 -1 -315 -12z"/>
<path d="M13665 5342 c-57 -4 -65 -12 -65 -70 0 -51 6 -54 135 -77 147 -27
171 -45 201 -152 15 -51 17 -162 21 -898 3 -475 1 -930 -5 -1047 -9 -187 -12
-212 -33 -255 -36 -70 -59 -82 -210 -107 l-134 -23 -3 -44 c-4 -70 2 -73 135
-79 65 -3 556 -3 1091 0 850 4 974 7 982 20 33 50 132 409 152 548 14 95 9
110 -43 127 -52 18 -82 3 -114 -58 -163 -301 -284 -412 -476 -438 -121 -17
-498 -6 -567 15 -99 31 -147 98 -174 241 -19 102 -19 1868 0 1970 23 123 56
151 206 181 54 10 97 25 108 36 22 22 24 81 4 97 -11 9 -161 13 -588 14 -315
1 -595 1 -623 -1z"/>
<path d="M16210 5317 c-10 -31 -3 -82 14 -96 6 -5 38 -14 71 -21 174 -34 215
-59 243 -150 16 -50 17 -141 17 -1090 0 -811 -3 -1044 -13 -1077 -26 -88 -89
-128 -239 -153 -40 -6 -78 -19 -85 -27 -15 -18 -15 -90 0 -105 6 -6 224 -10
637 -10 511 0 629 3 636 14 11 16 11 79 1 95 -10 16 -47 29 -107 38 -76 11
-152 43 -179 76 -52 61 -51 39 -51 1159 0 977 1 1048 18 1091 30 80 71 105
217 134 47 9 91 22 98 27 13 11 17 96 4 113 -4 6 -229 10 -639 10 l-633 0 -10
-28z"/>
<path d="M18749 5346 c-2 -2 -96 -6 -209 -10 -363 -11 -548 -27 -561 -47 -11
-18 -11 -80 -1 -97 5 -7 37 -17 73 -23 95 -15 125 -27 158 -64 43 -49 50 -85
62 -320 13 -244 3 -1744 -12 -1865 -15 -120 -48 -149 -206 -181 -124 -25 -143
-37 -143 -88 0 -21 6 -43 13 -49 9 -8 170 -13 493 -16 1025 -9 1082 -8 1302
30 351 59 705 248 889 474 215 264 314 551 314 910 1 285 -61 497 -207 715
-83 124 -84 125 -161 202 -130 128 -324 244 -516 308 -247 82 -523 117 -968
121 -175 1 -319 1 -320 0z m611 -201 c316 -48 551 -189 709 -424 150 -221 218
-545 190 -901 -44 -557 -304 -936 -713 -1040 -114 -29 -302 -37 -389 -16 -129
30 -215 93 -258 190 -18 43 -22 78 -31 280 -12 291 -5 1800 8 1840 13 37 52
67 101 76 67 13 285 10 383 -5z"/>
<path d="M32775 5343 c-22 -3 -43 -10 -47 -16 -12 -19 -9 -94 5 -105 6 -5 59
-21 116 -35 120 -30 142 -42 165 -91 34 -73 37 -129 42 -901 6 -789 -4 -1261
-26 -1325 -29 -82 -76 -106 -267 -135 -59 -9 -115 -23 -123 -31 -17 -16 -20
-88 -4 -104 8 -8 346 -11 1118 -11 610 0 1110 2 1112 4 2 2 20 49 39 105 47
134 101 346 116 456 12 88 12 89 -10 108 -30 23 -93 24 -113 1 -8 -10 -32 -49
-53 -88 -119 -217 -230 -329 -370 -372 -52 -15 -96 -18 -320 -18 -309 0 -352
8 -421 79 -78 82 -96 221 -92 695 3 309 4 323 23 337 17 13 63 15 285 12 257
-3 266 -4 302 -26 55 -34 74 -67 107 -187 16 -59 36 -114 45 -123 17 -17 88
-23 103 -8 9 9 17 835 8 884 -6 31 -8 32 -54 32 -30 0 -53 -6 -60 -14 -7 -8
-23 -56 -37 -107 -45 -169 -81 -209 -197 -221 -90 -9 -434 -10 -476 -2 -25 5
-33 13 -41 43 -12 45 -13 851 -1 905 5 21 15 44 21 50 17 17 579 15 650 -3
171 -43 241 -116 340 -354 37 -90 62 -113 114 -103 64 12 63 6 32 349 -15 171
-30 315 -32 319 -3 4 -24 5 -47 2 -45 -5 -1856 -6 -1891 0 -12 2 -39 1 -61 -1z"/>
</g>
</svg>
